999
dxflib 2.0.4.8
  0
SECTION
  2
HEADER
  9
$ACADVER
  1
AC1015
  9
$HANDSEED
  5
FFFF
  9
$DIMASZ
 40
2.5
  9
$DIMGAP
 40
0.625
  9
$INSUNITS
 70
4
  9
$DIMEXO
 40
0.625
  9
$DIMTXT
 40
2.5
  9
$DIMSTYLE
  2
Standard
  9
$PLIMMIN
 10
0.0
 20
0.0
  9
$PLIMMAX
 10
210.0
 20
297.0
  9
$DIMEXE
 40
1.25
  0
ENDSEC
  0
SECTION
  2
TABLES
  0
TABLE
  2
VPORT
  5
8
100
AcDbSymbolTable
 70
1
  0
VPORT
  5
30
100
AcDbSymbolTableRecord
100
AcDbViewportTableRecord
  2
*Active
 70
0
 10
0.0
 20
0.0
 11
1.0
 21
1.0
 12
286.3055555555554861
 22
148.5
 13
0.0
 23
0.0
 14
10.0
 24
10.0
 15
10.0
 25
10.0
 16
0.0
 26
0.0
 36
1.0
 17
0.0
 27
0.0
 37
0.0
 40
297.0
 41
1.92798353909465
 42
50.0
 43
0.0
 44
0.0
 50
0.0
 51
0.0
 71
0
 72
100
 73
1
 74
3
 75
1
 76
1
 77
0
 78
0
281
0
 65
1
110
0.0
120
0.0
130
0.0
111
1.0
121
0.0
131
0.0
112
0.0
122
1.0
132
0.0
 79
0
146
0.0
  0
ENDTAB
  0
TABLE
  2
LTYPE
  5
5
100
AcDbSymbolTable
 70
21
  0
LTYPE
  5
14
100
AcDbSymbolTableRecord
100
AcDbLinetypeTableRecord
  2
ByBlock
 70
0
  3

 72
65
 73
0
 40
0.0
  0
LTYPE
  5
15
100
AcDbSymbolTableRecord
100
AcDbLinetypeTableRecord
  2
ByLayer
 70
0
  3

 72
65
 73
0
 40
0.0
  0
LTYPE
  5
16
100
AcDbSymbolTableRecord
100
AcDbLinetypeTableRecord
  2
CONTINUOUS
 70
0
  3
Solid line
 72
65
 73
0
 40
0.0
  0
LTYPE
  5
31
100
AcDbSymbolTableRecord
100
AcDbLinetypeTableRecord
  2
DOT
 70
0
  3
Dot . . . . . . . . . . . . . . . . . . . . . .
 72
65
 73
2
 40
6.3499999999999996
 49
0.0
 74
0
 49
-6.3499999999999996
 74
0
  0
LTYPE
  5
32
100
AcDbSymbolTableRecord
100
AcDbLinetypeTableRecord
  2
DOT2
 70
0
  3
Dot (.5x) .....................................
 72
65
 73
2
 40
3.1749999999999998
 49
0.0
 74
0
 49
-3.1749999999999998
 74
0
  0
LTYPE
  5
33
100
AcDbSymbolTableRecord
100
AcDbLinetypeTableRecord
  2
DOTX2
 70
0
  3
Dot (2x) .  .  .  .  .  .  .  .  .  .  .  .  .
 72
65
 73
2
 40
12.6999999999999993
 49
0.0
 74
0
 49
-12.6999999999999993
 74
0
  0
LTYPE
  5
34
100
AcDbSymbolTableRecord
100
AcDbLinetypeTableRecord
  2
DASHED
 70
0
  3
Dashed __ __ __ __ __ __ __ __ __ __ __ __ __ _
 72
65
 73
2
 40
19.0500000000000007
 49
12.6999999999999993
 74
0
 49
-6.3499999999999996
 74
0
  0
LTYPE
  5
35
100
AcDbSymbolTableRecord
100
AcDbLinetypeTableRecord
  2
DASHED2
 70
0
  3
Dashed (.5x) _ _ _ _ _ _ _ _ _ _ _ _ _ _ _ _ _
 72
65
 73
2
 40
9.5250000000000004
 49
6.3499999999999996
 74
0
 49
-3.1749999999999998
 74
0
  0
LTYPE
  5
36
100
AcDbSymbolTableRecord
100
AcDbLinetypeTableRecord
  2
DASHEDX2
 70
0
  3
Dashed (2x) ____  ____  ____  ____  ____  ___
 72
65
 73
2
 40
38.1000000000000014
 49
25.3999999999999986
 74
0
 49
-12.6999999999999993
 74
0
  0
LTYPE
  5
37
100
AcDbSymbolTableRecord
100
AcDbLinetypeTableRecord
  2
DASHDOT
 70
0
  3
Dash dot __ . __ . __ . __ . __ . __ . __ . __
 72
65
 73
4
 40
25.3999999999999986
 49
12.6999999999999993
 74
0
 49
-6.3499999999999996
 74
0
 49
0.0
 74
0
 49
-6.3499999999999996
 74
0
  0
LTYPE
  5
38
100
AcDbSymbolTableRecord
100
AcDbLinetypeTableRecord
  2
DASHDOT2
 70
0
  3
Dash dot (.5x) _._._._._._._._._._._._._._._.
 72
65
 73
4
 40
12.6999999999999993
 49
6.3499999999999996
 74
0
 49
-3.1749999999999998
 74
0
 49
0.0
 74
0
 49
-3.1749999999999998
 74
0
  0
LTYPE
  5
39
100
AcDbSymbolTableRecord
100
AcDbLinetypeTableRecord
  2
DASHDOTX2
 70
0
  3
Dash dot (2x) ____  .  ____  .  ____  .  ___
 72
65
 73
4
 40
50.7999999999999972
 49
25.3999999999999986
 74
0
 49
-12.6999999999999993
 74
0
 49
0.0
 74
0
 49
-12.6999999999999993
 74
0
  0
LTYPE
  5
3A
100
AcDbSymbolTableRecord
100
AcDbLinetypeTableRecord
  2
DIVIDE
 70
0
  3
Divide ____ . . ____ . . ____ . . ____ . . ____
 72
65
 73
6
 40
31.75
 49
12.6999999999999993
 74
0
 49
-6.3499999999999996
 74
0
 49
0.0
 74
0
 49
-6.3499999999999996
 74
0
 49
0.0
 74
0
 49
-6.3499999999999996
 74
0
  0
LTYPE
  5
3B
100
AcDbSymbolTableRecord
100
AcDbLinetypeTableRecord
  2
DIVIDE2
 70
0
  3
Divide (.5x) __..__..__..__..__..__..__..__.._
 72
65
 73
6
 40
15.875
 49
6.3499999999999996
 74
0
 49
-3.1749999999999998
 74
0
 49
0.0
 74
0
 49
-3.1749999999999998
 74
0
 49
0.0
 74
0
 49
-3.1749999999999998
 74
0
  0
LTYPE
  5
3C
100
AcDbSymbolTableRecord
100
AcDbLinetypeTableRecord
  2
DIVIDEX2
 70
0
  3
Divide (2x) ________  .  .  ________  .  .  _
 72
65
 73
6
 40
63.5
 49
25.3999999999999986
 74
0
 49
-12.6999999999999993
 74
0
 49
0.0
 74
0
 49
-12.6999999999999993
 74
0
 49
0.0
 74
0
 49
-12.6999999999999993
 74
0
  0
LTYPE
  5
3D
100
AcDbSymbolTableRecord
100
AcDbLinetypeTableRecord
  2
CENTER
 70
0
  3
Center ____ _ ____ _ ____ _ ____ _ ____ _ ____
 72
65
 73
4
 40
50.7999999999999972
 49
31.75
 74
0
 49
-6.3499999999999996
 74
0
 49
6.3499999999999996
 74
0
 49
-6.3499999999999996
 74
0
  0
LTYPE
  5
3E
100
AcDbSymbolTableRecord
100
AcDbLinetypeTableRecord
  2
CENTER2
 70
0
  3
Center (.5x) ___ _ ___ _ ___ _ ___ _ ___ _ ___
 72
65
 73
4
 40
28.5749999999999993
 49
19.0500000000000007
 74
0
 49
-3.1749999999999998
 74
0
 49
3.1749999999999998
 74
0
 49
-3.1749999999999998
 74
0
  0
LTYPE
  5
3F
100
AcDbSymbolTableRecord
100
AcDbLinetypeTableRecord
  2
CENTERX2
 70
0
  3
Center (2x) ________  __  ________  __  _____
 72
65
 73
4
 40
101.5999999999999943
 49
63.5
 74
0
 49
-12.6999999999999993
 74
0
 49
12.6999999999999993
 74
0
 49
-12.6999999999999993
 74
0
  0
LTYPE
  5
40
100
AcDbSymbolTableRecord
100
AcDbLinetypeTableRecord
  2
BORDER
 70
0
  3
Border __ __ . __ __ . __ __ . __ __ . __ __ .
 72
65
 73
6
 40
44.4500000000000028
 49
12.6999999999999993
 74
0
 49
-6.3499999999999996
 74
0
 49
12.6999999999999993
 74
0
 49
-6.3499999999999996
 74
0
 49
0.0
 74
0
 49
-6.3499999999999996
 74
0
  0
LTYPE
  5
41
100
AcDbSymbolTableRecord
100
AcDbLinetypeTableRecord
  2
BORDER2
 70
0
  3
Border (.5x) __.__.__.__.__.__.__.__.__.__.__.
 72
65
 73
6
 40
22.2250000000000014
 49
6.3499999999999996
 74
0
 49
-3.1749999999999998
 74
0
 49
6.3499999999999996
 74
0
 49
-3.1749999999999998
 74
0
 49
0.0
 74
0
 49
-3.1749999999999998
 74
0
  0
LTYPE
  5
42
100
AcDbSymbolTableRecord
100
AcDbLinetypeTableRecord
  2
BORDERX2
 70
0
  3
Border (2x) ____  ____  .  ____  ____  .  ___
 72
65
 73
6
 40
88.9000000000000057
 49
25.3999999999999986
 74
0
 49
-12.6999999999999993
 74
0
 49
25.3999999999999986
 74
0
 49
-12.6999999999999993
 74
0
 49
0.0
 74
0
 49
-12.6999999999999993
 74
0
  0
ENDTAB
  0
TABLE
  2
LAYER
  5
2
100
AcDbSymbolTable
 70
3
  0
LAYER
  5
10
100
AcDbSymbolTableRecord
100
AcDbLayerTableRecord
  2
0
 70
0
 62
5
  6
CONTINUOUS
370
0
390
F
  0
LAYER
  5
43
100
AcDbSymbolTableRecord
100
AcDbLayerTableRecord
  2
outline
 70
1
 62
2
  6
CONTINUOUS
370
0
390
F
  0
LAYER
  5
44
100
AcDbSymbolTableRecord
100
AcDbLayerTableRecord
  2
csk
 70
5
 62
1
  6
CONTINUOUS
370
5
390
F
  0
ENDTAB
  0
TABLE
  2
STYLE
  5
3
100
AcDbSymbolTable
 70
1
  0
STYLE
  5
11
100
AcDbSymbolTableRecord
100
AcDbTextStyleTableRecord
  2
Standard
 70
0
 40
0.0
 41
0.75
 50
0.0
 71
0
 42
2.5
  3
txt
  4

  0
ENDTAB
  0
TABLE
  2
VIEW
  5
6
100
AcDbSymbolTable
 70
0
  0
ENDTAB
  0
TABLE
  2
UCS
  5
7
100
AcDbSymbolTable
 70
0
  0
ENDTAB
  0
TABLE
  2
APPID
  5
9
100
AcDbSymbolTable
 70
1
  0
APPID
  5
12
100
AcDbSymbolTableRecord
100
AcDbRegAppTableRecord
  2
ACAD
 70
0
  0
ENDTAB
  0
TABLE
  2
DIMSTYLE
  5
A
100
AcDbSymbolTable
 70
1
100
AcDbDimStyleTable
 71
0
  0
DIMSTYLE
105
27
100
AcDbSymbolTableRecord
100
AcDbDimStyleTableRecord
  2
Standard
 41
2.5
 42
0.625
 43
3.75
 44
1.25
 70
0
 73
0
 74
0
 77
1
 78
8
140
2.5
141
2.5
143
0.03937007874016
147
0.625
171
3
172
1
271
2
272
2
274
3
278
44
283
0
284
8
340
11
  0
ENDTAB
  0
TABLE
  2
BLOCK_RECORD
  5
1
100
AcDbSymbolTable
 70
1
  0
BLOCK_RECORD
  5
1F
100
AcDbSymbolTableRecord
100
AcDbBlockTableRecord
  2
*Model_Space
340
22
  0
BLOCK_RECORD
  5
1B
100
AcDbSymbolTableRecord
100
AcDbBlockTableRecord
  2
*Paper_Space
340
1E
  0
BLOCK_RECORD
  5
23
100
AcDbSymbolTableRecord
100
AcDbBlockTableRecord
  2
*Paper_Space0
340
26
  0
ENDTAB
  0
ENDSEC
  0
SECTION
  2
BLOCKS
  0
BLOCK
  5
20
100
AcDbEntity
  8
0
100
AcDbBlockBegin
  2
*Model_Space
 70
0
 10
0.0
 20
0.0
 30
0.0
  3
*Model_Space
  1

  0
ENDBLK
  5
21
100
AcDbEntity
  8
0
100
AcDbBlockEnd
  0
BLOCK
  5
1C
100
AcDbEntity
 67
1
  8
0
100
AcDbBlockBegin
  2
*Paper_Space
 70
0
 10
0.0
 20
0.0
 30
0.0
  3
*Paper_Space
  1

  0
ENDBLK
  5
1D
100
AcDbEntity
 67
1
  8
0
100
AcDbBlockEnd
  0
BLOCK
  5
24
100
AcDbEntity
  8
0
100
AcDbBlockBegin
  2
*Paper_Space0
 70
0
 10
0.0
 20
0.0
 30
0.0
  3
*Paper_Space0
  1

  0
ENDBLK
  5
25
100
AcDbEntity
  8
0
100
AcDbBlockEnd
  0
ENDSEC
  0
SECTION
  2
ENTITIES
  0
CIRCLE
  5
45
100
AcDbEntity
100
AcDbCircle
  8
outline
 62
256
370
-1
  6
ByLayer
 10
14.0
 20
2.5
 30
0.0
 40
1.6000000000000001
  0
CIRCLE
  5
46
100
AcDbEntity
100
AcDbCircle
  8
outline
 62
256
370
-1
  6
ByLayer
 10
15.3000000000000007
 20
50.7000000000000028
 30
0.0
 40
1.6000000000000014
  0
CIRCLE
  5
47
100
AcDbEntity
100
AcDbCircle
  8
outline
 62
256
370
-1
  6
ByLayer
 10
66.0999999999999943
 20
7.6000000000000005
 30
0.0
 40
1.5999999999999996
  0
CIRCLE
  5
48
100
AcDbEntity
100
AcDbCircle
  8
outline
 62
256
370
-1
  6
ByLayer
 10
66.1000000000000085
 20
35.5
 30
0.0
 40
1.6000000000000014
  0
LINE
  5
49
100
AcDbEntity
100
AcDbLine
  8
outline
 62
256
370
-1
  6
ByLayer
 10
-0.2000000000000002
 20
53.7000000000000028
 30
0.0
 11
-0.2000000000000002
 21
-0.5
 31
0.0
  0
LINE
  5
4A
100
AcDbEntity
100
AcDbLine
  8
outline
 62
256
370
-1
  6
ByLayer
 10
69.1000000000000085
 20
53.6999999999999957
 30
0.0
 11
-0.2000000000000002
 21
53.7000000000000028
 31
0.0
  0
LINE
  5
4B
100
AcDbEntity
100
AcDbLine
  8
outline
 62
256
370
-1
  6
ByLayer
 10
-0.2000000000000002
 20
-0.5
 30
0.0
 11
69.1000000000000085
 21
-0.5
 31
0.0
  0
LINE
  5
4C
100
AcDbEntity
100
AcDbLine
  8
outline
 62
256
370
-1
  6
ByLayer
 10
69.1000000000000085
 20
-0.5
 30
0.0
 11
69.1000000000000085
 21
53.6999999999999957
 31
0.0
  0
LINE
  5
4D
100
AcDbEntity
100
AcDbLine
  8
outline
 62
256
370
-1
  6
ByLayer
 10
-0.2000000000000002
 20
3.5
 30
0.0
 11
-2.2000000000000002
 21
3.5
 31
0.0
  0
LINE
  5
4E
100
AcDbEntity
100
AcDbLine
  8
outline
 62
256
370
-1
  6
ByLayer
 10
-2.2000000000000002
 20
3.5
 30
0.0
 11
-2.2000000000000002
 21
13.5
 31
0.0
  0
LINE
  5
4F
100
AcDbEntity
100
AcDbLine
  8
outline
 62
256
370
-1
  6
ByLayer
 10
-2.2000000000000002
 20
13.5
 30
0.0
 11
-0.1999999999999997
 21
13.5
 31
0.0
  0
LINE
  5
50
100
AcDbEntity
100
AcDbLine
  8
outline
 62
256
370
-1
  6
ByLayer
 10
-0.2000000000000002
 20
44.6999999999999957
 30
0.0
 11
-6.7000000000000002
 21
44.6999999999999957
 31
0.0
  0
LINE
  5
51
100
AcDbEntity
100
AcDbLine
  8
outline
 62
256
370
-1
  6
ByLayer
 10
-6.7000000000000002
 20
44.6999999999999957
 30
0.0
 11
-6.7000000000000002
 21
32.2000000000000028
 31
0.0
  0
LINE
  5
52
100
AcDbEntity
100
AcDbLine
  8
outline
 62
256
370
-1
  6
ByLayer
 10
-6.7000000000000002
 20
32.2000000000000028
 30
0.0
 11
-0.2000000000000002
 21
32.2000000000000028
 31
0.0
  0
CIRCLE
  5
53
100
AcDbEntity
100
AcDbCircle
  8
0
 62
256
370
-1
  6
ByLayer
 10
15.3000000000000007
 20
50.7000000000000028
 30
0.0
 40
1.5
  0
CIRCLE
  5
54
100
AcDbEntity
100
AcDbCircle
  8
0
 62
256
370
-1
  6
ByLayer
 10
66.1000000000000085
 20
35.5
 30
0.0
 40
1.5
  0
CIRCLE
  5
55
100
AcDbEntity
100
AcDbCircle
  8
0
 62
256
370
-1
  6
ByLayer
 10
66.0999999999999943
 20
7.6000000000000005
 30
0.0
 40
1.5000000000000142
  0
CIRCLE
  5
56
100
AcDbEntity
100
AcDbCircle
  8
0
 62
256
370
-1
  6
ByLayer
 10
14.0000000000000018
 20
2.5
 30
0.0
 40
1.5
  0
LINE
  5
57
100
AcDbEntity
100
AcDbLine
  8
0
 62
256
370
-1
  6
ByLayer
 10
12.8000000000000007
 20
53.7000000000000028
 30
0.0
 11
12.8000000000000007
 21
56.7000000000000028
 31
0.0
  0
LINE
  5
58
100
AcDbEntity
100
AcDbLine
  8
0
 62
256
370
-1
  6
ByLayer
 10
56.1000000000000014
 20
53.7000000000000028
 30
0.0
 11
56.1000000000000014
 21
56.7000000000000028
 31
0.0
  0
LINE
  5
59
100
AcDbEntity
100
AcDbLine
  8
0
 62
256
370
-1
  6
ByLayer
 10
27.8000000000000007
 20
53.6999999999999957
 30
0.0
 11
41.1000000000000014
 21
53.6999999999999957
 31
0.0
  0
LINE
  5
5A
100
AcDbEntity
100
AcDbLine
  8
0
 62
256
370
-1
  6
ByLayer
 10
41.1000000000000014
 20
53.6999999999999957
 30
0.0
 11
41.1000000000000014
 21
56.7000000000000028
 31
0.0
  0
LINE
  5
5B
100
AcDbEntity
100
AcDbLine
  8
0
 62
256
370
-1
  6
ByLayer
 10
41.1000000000000014
 20
56.7000000000000028
 30
0.0
 11
27.8000000000000007
 21
56.7000000000000028
 31
0.0
  0
LINE
  5
5C
100
AcDbEntity
100
AcDbLine
  8
0
 62
256
370
-1
  6
ByLayer
 10
27.8000000000000007
 20
56.7000000000000028
 30
0.0
 11
27.8000000000000007
 21
53.6999999999999957
 31
0.0
  0
LINE
  5
5D
100
AcDbEntity
100
AcDbLine
  8
0
 62
256
370
-1
  6
ByLayer
 10
12.8000000000000007
 20
-3.5
 30
0.0
 11
12.8000000000000007
 21
-0.5
 31
0.0
  0
LINE
  5
5E
100
AcDbEntity
100
AcDbLine
  8
0
 62
256
370
-1
  6
ByLayer
 10
56.1000000000000014
 20
-3.5
 30
0.0
 11
56.1000000000000014
 21
-0.5
 31
0.0
  0
LINE
  5
5F
100
AcDbEntity
100
AcDbLine
  8
0
 62
256
370
-1
  6
ByLayer
 10
27.8000000000000007
 20
-3.5000000000000071
 30
0.0
 11
41.1000000000000014
 21
-3.5000000000000071
 31
0.0
  0
LINE
  5
60
100
AcDbEntity
100
AcDbLine
  8
0
 62
256
370
-1
  6
ByLayer
 10
41.1000000000000014
 20
-3.5000000000000071
 30
0.0
 11
41.1000000000000014
 21
-0.5
 31
0.0
  0
LINE
  5
61
100
AcDbEntity
100
AcDbLine
  8
0
 62
256
370
-1
  6
ByLayer
 10
41.1000000000000014
 20
-0.5
 30
0.0
 11
27.8000000000000007
 21
-0.5
 31
0.0
  0
LINE
  5
62
100
AcDbEntity
100
AcDbLine
  8
0
 62
256
370
-1
  6
ByLayer
 10
27.8000000000000007
 20
-0.5
 30
0.0
 11
27.8000000000000007
 21
-3.5000000000000071
 31
0.0
  0
LINE
  5
63
100
AcDbEntity
100
AcDbLine
  8
0
 62
256
370
-1
  6
ByLayer
 10
-3.1999999999999997
 20
-3.5
 30
0.0
 11
-0.1999999999999997
 21
-3.5
 31
0.0
  0
LINE
  5
64
100
AcDbEntity
100
AcDbLine
  8
0
 62
256
370
-1
  6
ByLayer
 10
-0.1999999999999997
 20
-3.5
 30
0.0
 11
-0.1999999999999997
 21
16.5
 31
0.0
  0
LINE
  5
65
100
AcDbEntity
100
AcDbLine
  8
0
 62
256
370
-1
  6
ByLayer
 10
-0.1999999999999997
 20
16.5
 30
0.0
 11
-3.1999999999999997
 21
16.5
 31
0.0
  0
LINE
  5
66
100
AcDbEntity
100
AcDbLine
  8
0
 62
256
370
-1
  6
ByLayer
 10
-3.1999999999999997
 20
16.5
 30
0.0
 11
-3.1999999999999997
 21
-3.5
 31
0.0
  0
LINE
  5
67
100
AcDbEntity
100
AcDbLine
  8
0
 62
256
370
-1
  6
ByLayer
 10
4.8000000000000007
 20
53.7000000000000028
 30
0.0
 11
12.8000000000000007
 21
53.7000000000000028
 31
0.0
  0
LINE
  5
68
100
AcDbEntity
100
AcDbLine
  8
0
 62
256
370
-1
  6
ByLayer
 10
12.8000000000000007
 20
56.7000000000000028
 30
0.0
 11
4.8000000000000007
 21
56.7000000000000028
 31
0.0
  0
LINE
  5
69
100
AcDbEntity
100
AcDbLine
  8
0
 62
256
370
-1
  6
ByLayer
 10
4.8000000000000007
 20
56.7000000000000028
 30
0.0
 11
4.8000000000000007
 21
53.7000000000000028
 31
0.0
  0
LINE
  5
6A
100
AcDbEntity
100
AcDbLine
  8
0
 62
256
370
-1
  6
ByLayer
 10
64.1000000000000085
 20
53.6999999999999957
 30
0.0
 11
56.1000000000000014
 21
53.7000000000000028
 31
0.0
  0
LINE
  5
6B
100
AcDbEntity
100
AcDbLine
  8
0
 62
256
370
-1
  6
ByLayer
 10
56.1000000000000014
 20
56.7000000000000028
 30
0.0
 11
64.1000000000000085
 21
56.7000000000000028
 31
0.0
  0
LINE
  5
6C
100
AcDbEntity
100
AcDbLine
  8
0
 62
256
370
-1
  6
ByLayer
 10
64.1000000000000085
 20
56.7000000000000028
 30
0.0
 11
64.1000000000000085
 21
53.6999999999999957
 31
0.0
  0
LINE
  5
6D
100
AcDbEntity
100
AcDbLine
  8
0
 62
256
370
-1
  6
ByLayer
 10
64.0999999999999943
 20
-3.5
 30
0.0
 11
56.1000000000000014
 21
-3.5
 31
0.0
  0
LINE
  5
6E
100
AcDbEntity
100
AcDbLine
  8
0
 62
256
370
-1
  6
ByLayer
 10
56.1000000000000014
 20
-0.5
 30
0.0
 11
64.0999999999999943
 21
-0.5
 31
0.0
  0
LINE
  5
6F
100
AcDbEntity
100
AcDbLine
  8
0
 62
256
370
-1
  6
ByLayer
 10
64.0999999999999943
 20
-0.5
 30
0.0
 11
64.0999999999999943
 21
-3.5
 31
0.0
  0
LINE
  5
70
100
AcDbEntity
100
AcDbLine
  8
0
 62
256
370
-1
  6
ByLayer
 10
12.8000000000000007
 20
-0.5
 30
0.0
 11
4.8000000000000007
 21
-0.5
 31
0.0
  0
LINE
  5
71
100
AcDbEntity
100
AcDbLine
  8
0
 62
256
370
-1
  6
ByLayer
 10
4.8000000000000007
 20
-3.5
 30
0.0
 11
12.8000000000000007
 21
-3.5
 31
0.0
  0
LINE
  5
72
100
AcDbEntity
100
AcDbLine
  8
0
 62
256
370
-1
  6
ByLayer
 10
4.8000000000000007
 20
-0.5
 30
0.0
 11
4.8000000000000007
 21
-3.5
 31
0.0
  0
ARC
  5
73
100
AcDbEntity
  8
0
 62
256
370
-1
  6
ByLayer
100
AcDbCircle
 10
-3.2000000000000011
 20
56.6999999999999957
 30
0.0
 40
4.0
100
AcDbArc
 50
89.9999999999998153
 51
180.0
  0
LINE
  5
74
100
AcDbEntity
100
AcDbLine
  8
0
 62
256
370
-1
  6
ByLayer
 10
72.1000000000000085
 20
60.6999999999999957
 30
0.0
 11
-3.1999999999999886
 21
60.6999999999999957
 31
0.0
  0
ARC
  5
75
100
AcDbEntity
  8
0
 62
256
370
-1
  6
ByLayer
100
AcDbCircle
 10
72.1000000000000085
 20
56.6999999999999957
 30
0.0
 40
4.0
100
AcDbArc
 50
360.0
 51
90.0
  0
LINE
  5
76
100
AcDbEntity
100
AcDbLine
  8
0
 62
256
370
-1
  6
ByLayer
 10
76.1000000000000085
 20
-3.5
 30
0.0
 11
76.1000000000000085
 21
56.6999999999999744
 31
0.0
  0
ARC
  5
77
100
AcDbEntity
  8
0
 62
256
370
-1
  6
ByLayer
100
AcDbCircle
 10
72.0999999999999943
 20
-3.5
 30
0.0
 40
4.0
100
AcDbArc
 50
269.9999999999997726
 51
0.0
  0
LINE
  5
78
100
AcDbEntity
100
AcDbLine
  8
0
 62
256
370
-1
  6
ByLayer
 10
-7.2000000000000011
 20
56.6999999999999957
 30
0.0
 11
-7.2000000000000011
 21
-3.5000000000000071
 31
0.0
  0
LINE
  5
79
100
AcDbEntity
100
AcDbLine
  8
0
 62
256
370
-1
  6
ByLayer
 10
-3.2000000000000011
 20
-7.5
 30
0.0
 11
72.0999999999999801
 21
-7.5
 31
0.0
  0
ARC
  5
7A
100
AcDbEntity
  8
0
 62
256
370
-1
  6
ByLayer
100
AcDbCircle
 10
-3.2000000000000011
 20
-3.5
 30
0.0
 40
4.0
100
AcDbArc
 50
180.0
 51
270.0
  0
LINE
  5
7B
100
AcDbEntity
100
AcDbLine
  8
0
 62
256
370
-1
  6
ByLayer
 10
-0.1999999999999993
 20
29.0
 30
0.0
 11
-3.1999999999999997
 21
29.0
 31
0.0
  0
LINE
  5
7C
100
AcDbEntity
100
AcDbLine
  8
0
 62
256
370
-1
  6
ByLayer
 10
-0.2000000000000002
 20
49.0
 30
0.0
 11
-0.1999999999999993
 21
29.0
 31
0.0
  0
LINE
  5
7D
100
AcDbEntity
100
AcDbLine
  8
0
 62
256
370
-1
  6
ByLayer
 10
-3.2000000000000002
 20
49.0
 30
0.0
 11
-0.2000000000000002
 21
49.0
 31
0.0
  0
LINE
  5
7E
100
AcDbEntity
100
AcDbLine
  8
0
 62
256
370
-1
  6
ByLayer
 10
-3.1999999999999997
 20
29.0
 30
0.0
 11
-3.2000000000000002
 21
49.0
 31
0.0
  0
LINE
  5
7F
100
AcDbEntity
100
AcDbLine
  8
0
 62
256
370
-1
  6
ByLayer
 10
-7.1999999999999993
 20
16.5
 30
0.0
 11
-10.1999999999999993
 21
16.5
 31
0.0
  0
LINE
  5
80
100
AcDbEntity
100
AcDbLine
  8
0
 62
256
370
-1
  6
ByLayer
 10
-10.1999999999999993
 20
16.5
 30
0.0
 11
-10.1999999999999993
 21
29.0
 31
0.0
  0
LINE
  5
81
100
AcDbEntity
100
AcDbLine
  8
0
 62
256
370
-1
  6
ByLayer
 10
-10.1999999999999993
 20
29.0
 30
0.0
 11
-7.1999999999999993
 21
29.0
 31
0.0
  0
LINE
  5
82
100
AcDbEntity
100
AcDbLine
  8
0
 62
256
370
-1
  6
ByLayer
 10
-7.2000000000000002
 20
49.0000000000000071
 30
0.0
 11
-10.2000000000000011
 21
49.0
 31
0.0
  0
LINE
  5
83
100
AcDbEntity
100
AcDbLine
  8
0
 62
256
370
-1
  6
ByLayer
 10
-10.2000000000000011
 20
49.0
 30
0.0
 11
-10.1999999999999993
 21
56.7000000000000028
 31
0.0
  0
LINE
  5
84
100
AcDbEntity
100
AcDbLine
  8
0
 62
256
370
-1
  6
ByLayer
 10
-14.8000000000000043
 20
32.2000000000000028
 30
0.0
 11
-25.8000000000000007
 21
32.2000000000000028
 31
0.0
  0
LINE
  5
85
100
AcDbEntity
100
AcDbLine
  8
0
 62
256
370
-1
  6
ByLayer
 10
-25.8000000000000007
 20
32.2000000000000028
 30
0.0
 11
-25.8000000000000007
 21
44.7000000000000028
 31
0.0
  0
LINE
  5
86
100
AcDbEntity
100
AcDbLine
  8
0
 62
256
370
-1
  6
ByLayer
 10
-25.8000000000000007
 20
44.7000000000000028
 30
0.0
 11
-14.8000000000000043
 21
44.7000000000000028
 31
0.0
  0
LINE
  5
87
100
AcDbEntity
100
AcDbLine
  8
0
 62
256
370
-1
  6
ByLayer
 10
-14.8000000000000043
 20
44.7000000000000028
 30
0.0
 11
-14.8000000000000043
 21
32.2000000000000028
 31
0.0
  0
LINE
  5
88
100
AcDbEntity
100
AcDbLine
  8
0
 62
256
370
-1
  6
ByLayer
 10
-14.7999999999999989
 20
3.5
 30
0.0
 11
-25.8000000000000043
 21
3.5
 31
0.0
  0
LINE
  5
89
100
AcDbEntity
100
AcDbLine
  8
0
 62
256
370
-1
  6
ByLayer
 10
-25.8000000000000043
 20
3.5
 30
0.0
 11
-25.8000000000000043
 21
13.5
 31
0.0
  0
LINE
  5
8A
100
AcDbEntity
100
AcDbLine
  8
0
 62
256
370
-1
  6
ByLayer
 10
-25.8000000000000043
 20
13.5
 30
0.0
 11
-14.7999999999999989
 21
13.5
 31
0.0
  0
LINE
  5
8B
100
AcDbEntity
100
AcDbLine
  8
0
 62
256
370
-1
  6
ByLayer
 10
-14.7999999999999989
 20
13.5
 30
0.0
 11
-14.7999999999999989
 21
3.5
 31
0.0
  0
LINE
  5
8C
100
AcDbEntity
100
AcDbLine
  8
0
 62
256
370
-1
  6
ByLayer
 10
-18.5
 20
-3.4999999999999996
 30
0.0
 11
-18.5000000000000036
 21
-0.5
 31
0.0
  0
LINE
  5
8D
100
AcDbEntity
100
AcDbLine
  8
0
 62
256
370
-1
  6
ByLayer
 10
-18.5000000000000036
 20
-0.5
 30
0.0
 11
-29.8000000000000007
 21
-0.5
 31
0.0
  0
LINE
  5
8E
100
AcDbEntity
100
AcDbLine
  8
0
 62
256
370
-1
  6
ByLayer
 10
-18.5000000000000036
 20
56.6999999999999957
 30
0.0
 11
-18.5
 21
53.7000000000000028
 31
0.0
  0
LINE
  5
8F
100
AcDbEntity
100
AcDbLine
  8
0
 62
256
370
-1
  6
ByLayer
 10
-18.5000000000000036
 20
56.6999999999999957
 30
0.0
 11
-10.1999999999999993
 21
56.7000000000000028
 31
0.0
  0
LINE
  5
90
100
AcDbEntity
100
AcDbLine
  8
0
 62
256
370
-1
  6
ByLayer
 10
-7.2000000000000011
 20
-3.5
 30
0.0
 11
-18.5000000000000036
 21
-3.4999999999999996
 31
0.0
  0
LINE
  5
91
100
AcDbEntity
100
AcDbLine
  8
0
 62
256
370
-1
  6
ByLayer
 10
-29.8000000000000043
 20
49.0
 30
0.0
 11
-26.8000000000000043
 21
49.0
 31
0.0
  0
LINE
  5
92
100
AcDbEntity
100
AcDbLine
  8
0
 62
256
370
-1
  6
ByLayer
 10
-26.8000000000000043
 20
49.0
 30
0.0
 11
-26.8000000000000007
 21
53.7000000000000028
 31
0.0
  0
LINE
  5
93
100
AcDbEntity
100
AcDbLine
  8
0
 62
256
370
-1
  6
ByLayer
 10
-18.5
 20
53.7000000000000028
 30
0.0
 11
-26.8000000000000043
 21
53.7000000000000028
 31
0.0
  0
LINE
  5
94
100
AcDbEntity
100
AcDbLine
  8
0
 62
256
370
-1
  6
ByLayer
 10
-29.8000000000000043
 20
29.0
 30
0.0
 11
-26.8000000000000043
 21
29.0
 31
0.0
  0
LINE
  5
95
100
AcDbEntity
100
AcDbLine
  8
0
 62
256
370
-1
  6
ByLayer
 10
-26.8000000000000043
 20
29.0
 30
0.0
 11
-26.8000000000000043
 21
18.0
 31
0.0
  0
LINE
  5
96
100
AcDbEntity
100
AcDbLine
  8
0
 62
256
370
-1
  6
ByLayer
 10
-26.8000000000000043
 20
18.0
 30
0.0
 11
-29.8000000000000043
 21
17.9999999999999964
 31
0.0
  0
LINE
  5
97
100
AcDbEntity
100
AcDbLine
  8
0
 62
256
370
-1
  6
ByLayer
 10
-29.8000000000000043
 20
29.0
 30
0.0
 11
-29.8000000000000007
 21
49.0
 31
0.0
  0
LINE
  5
98
100
AcDbEntity
100
AcDbLine
  8
0
 62
256
370
-1
  6
ByLayer
 10
-29.8000000000000007
 20
-0.5000000000000001
 30
0.0
 11
-29.8000000000000007
 21
18.0
 31
0.0
  0
LINE
  5
99
100
AcDbEntity
100
AcDbLine
  8
0
 62
256
370
-1
  6
ByLayer
 10
4.8000000000000007
 20
60.7000000000000028
 30
0.0
 11
4.8000000000000007
 21
63.7000000000000028
 31
0.0
  0
LINE
  5
9A
100
AcDbEntity
100
AcDbLine
  8
0
 62
256
370
-1
  6
ByLayer
 10
12.8000000000000007
 20
60.7000000000000028
 30
0.0
 11
12.8000000000000007
 21
63.7000000000000028
 31
0.0
  0
LINE
  5
9B
100
AcDbEntity
100
AcDbLine
  8
0
 62
256
370
-1
  6
ByLayer
 10
12.8000000000000007
 20
63.7000000000000028
 30
0.0
 11
27.8000000000000007
 21
63.7000000000000028
 31
0.0
  0
LINE
  5
9C
100
AcDbEntity
100
AcDbLine
  8
0
 62
256
370
-1
  6
ByLayer
 10
27.8000000000000007
 20
63.7000000000000028
 30
0.0
 11
27.8000000000000007
 21
60.7000000000000028
 31
0.0
  0
LINE
  5
9D
100
AcDbEntity
100
AcDbLine
  8
0
 62
256
370
-1
  6
ByLayer
 10
41.1000000000000014
 20
60.7000000000000028
 30
0.0
 11
41.1000000000000014
 21
63.7000000000000028
 31
0.0
  0
LINE
  5
9E
100
AcDbEntity
100
AcDbLine
  8
0
 62
256
370
-1
  6
ByLayer
 10
41.1000000000000014
 20
63.7000000000000028
 30
0.0
 11
56.1000000000000014
 21
63.7000000000000028
 31
0.0
  0
LINE
  5
9F
100
AcDbEntity
100
AcDbLine
  8
0
 62
256
370
-1
  6
ByLayer
 10
56.1000000000000014
 20
63.7000000000000028
 30
0.0
 11
56.1000000000000014
 21
60.7000000000000028
 31
0.0
  0
LINE
  5
A0
100
AcDbEntity
100
AcDbLine
  8
0
 62
256
370
-1
  6
ByLayer
 10
64.0999999999999943
 20
60.6999999999999957
 30
0.0
 11
64.0999999999999943
 21
63.7000000000000028
 31
0.0
  0
LINE
  5
A1
100
AcDbEntity
100
AcDbLine
  8
0
 62
256
370
-1
  6
ByLayer
 10
-0.2000000000000002
 20
72.0000000000000142
 30
0.0
 11
-3.2000000000000002
 21
72.0000000000000142
 31
0.0
  0
LINE
  5
A2
100
AcDbEntity
100
AcDbLine
  8
0
 62
256
370
-1
  6
ByLayer
 10
-0.1999999999999997
 20
72.0
 30
0.0
 11
-0.2
 21
63.7000000000000028
 31
0.0
  0
LINE
  5
A3
100
AcDbEntity
100
AcDbLine
  8
0
 62
256
370
-1
  6
ByLayer
 10
4.8000000000000007
 20
63.7000000000000028
 30
0.0
 11
-0.2000000000000002
 21
63.7000000000000028
 31
0.0
  0
LINE
  5
A4
100
AcDbEntity
100
AcDbLine
  8
0
 62
256
370
-1
  6
ByLayer
 10
69.1000000000000085
 20
63.6999999999999957
 30
0.0
 11
69.1000000000000085
 21
72.0000000000000142
 31
0.0
  0
LINE
  5
A5
100
AcDbEntity
100
AcDbLine
  8
0
 62
256
370
-1
  6
ByLayer
 10
69.1000000000000085
 20
72.0000000000000142
 30
0.0
 11
72.1000000000000085
 21
72.0000000000000142
 31
0.0
  0
LINE
  5
A6
100
AcDbEntity
100
AcDbLine
  8
0
 62
256
370
-1
  6
ByLayer
 10
64.0999999999999943
 20
63.7000000000000028
 30
0.0
 11
69.0999999999999943
 21
63.7000000000000028
 31
0.0
  0
LINE
  5
A7
100
AcDbEntity
100
AcDbLine
  8
0
 62
256
370
-1
  6
ByLayer
 10
-3.1999999999999997
 20
72.0000000000000142
 30
0.0
 11
-3.1999999999999993
 21
80.3000000000000114
 31
0.0
  0
LINE
  5
A8
100
AcDbEntity
100
AcDbLine
  8
0
 62
256
370
-1
  6
ByLayer
 10
72.1000000000000085
 20
80.3000000000000114
 30
0.0
 11
72.1000000000000085
 21
72.0
 31
0.0
  0
LINE
  5
A9
100
AcDbEntity
100
AcDbLine
  8
0
 62
256
370
-1
  6
ByLayer
 10
4.7999999999999998
 20
-7.5
 30
0.0
 11
4.7999999999999998
 21
-10.4999999999999929
 31
0.0
  0
LINE
  5
AA
100
AcDbEntity
100
AcDbLine
  8
0
 62
256
370
-1
  6
ByLayer
 10
12.8000000000000007
 20
-7.5
 30
0.0
 11
12.8000000000000007
 21
-10.4999999999999858
 31
0.0
  0
LINE
  5
AB
100
AcDbEntity
100
AcDbLine
  8
0
 62
256
370
-1
  6
ByLayer
 10
12.8000000000000007
 20
-10.4999999999999858
 30
0.0
 11
27.8000000000000007
 21
-10.5000000000000071
 31
0.0
  0
LINE
  5
AC
100
AcDbEntity
100
AcDbLine
  8
0
 62
256
370
-1
  6
ByLayer
 10
27.8000000000000007
 20
-10.5000000000000071
 30
0.0
 11
27.8000000000000007
 21
-7.5
 31
0.0
  0
LINE
  5
AD
100
AcDbEntity
100
AcDbLine
  8
0
 62
256
370
-1
  6
ByLayer
 10
41.1000000000000085
 20
-7.5
 30
0.0
 11
41.1000000000000085
 21
-10.5000000000000071
 31
0.0
  0
LINE
  5
AE
100
AcDbEntity
100
AcDbLine
  8
0
 62
256
370
-1
  6
ByLayer
 10
41.1000000000000085
 20
-10.5000000000000071
 30
0.0
 11
56.1000000000000085
 21
-10.5000000000000142
 31
0.0
  0
LINE
  5
AF
100
AcDbEntity
100
AcDbLine
  8
0
 62
256
370
-1
  6
ByLayer
 10
56.1000000000000085
 20
-10.5000000000000142
 30
0.0
 11
56.1000000000000085
 21
-7.4999999999999574
 31
0.0
  0
LINE
  5
B0
100
AcDbEntity
100
AcDbLine
  8
0
 62
256
370
-1
  6
ByLayer
 10
64.1000000000000085
 20
-7.5000000000000071
 30
0.0
 11
64.1000000000000085
 21
-10.5000000000000497
 31
0.0
  0
LINE
  5
B1
100
AcDbEntity
100
AcDbLine
  8
0
 62
256
370
-1
  6
ByLayer
 10
-0.2000000000000002
 20
-18.8000000000000114
 30
0.0
 11
-3.2000000000000002
 21
-18.8000000000000114
 31
0.0
  0
LINE
  5
B2
100
AcDbEntity
100
AcDbLine
  8
0
 62
256
370
-1
  6
ByLayer
 10
-0.2000000000000002
 20
-18.7999999999999972
 30
0.0
 11
-0.2000000000000002
 21
-10.5
 31
0.0
  0
LINE
  5
B3
100
AcDbEntity
100
AcDbLine
  8
0
 62
256
370
-1
  6
ByLayer
 10
4.7999999999999998
 20
-10.4999999999999929
 30
0.0
 11
-0.2000000000000002
 21
-10.5
 31
0.0
  0
LINE
  5
B4
100
AcDbEntity
100
AcDbLine
  8
0
 62
256
370
-1
  6
ByLayer
 10
69.1000000000000085
 20
-10.4999999999999716
 30
0.0
 11
69.1000000000000085
 21
-18.7999999999997556
 31
0.0
  0
LINE
  5
B5
100
AcDbEntity
100
AcDbLine
  8
0
 62
256
370
-1
  6
ByLayer
 10
69.1000000000000085
 20
-18.7999999999997556
 30
0.0
 11
72.1000000000000085
 21
-18.7999999999996632
 31
0.0
  0
LINE
  5
B6
100
AcDbEntity
100
AcDbLine
  8
0
 62
256
370
-1
  6
ByLayer
 10
64.1000000000000085
 20
-10.5000000000000497
 30
0.0
 11
69.1000000000000085
 21
-10.4999999999999716
 31
0.0
  0
LINE
  5
B7
100
AcDbEntity
100
AcDbLine
  8
0
 62
256
370
-1
  6
ByLayer
 10
-3.2000000000000002
 20
-18.8000000000000114
 30
0.0
 11
-3.2000000000000002
 21
-27.1000000000000085
 31
0.0
  0
LINE
  5
B8
100
AcDbEntity
100
AcDbLine
  8
0
 62
256
370
-1
  6
ByLayer
 10
72.1000000000000085
 20
-27.1000000000000654
 30
0.0
 11
72.1000000000000085
 21
-18.7999999999996632
 31
0.0
  0
LINE
  5
B9
100
AcDbEntity
100
AcDbLine
  8
0
 62
256
370
-1
  6
ByLayer
 10
69.1000000000000085
 20
50.0000000000000071
 30
0.0
 11
72.1000000000000085
 21
50.0000000000000071
 31
0.0
  0
LINE
  5
BA
100
AcDbEntity
100
AcDbLine
  8
0
 62
256
370
-1
  6
ByLayer
 10
72.1000000000000085
 20
50.0000000000000071
 30
0.0
 11
72.1000000000000085
 21
40.0
 31
0.0
  0
LINE
  5
BB
100
AcDbEntity
100
AcDbLine
  8
0
 62
256
370
-1
  6
ByLayer
 10
72.1000000000000085
 20
40.0
 30
0.0
 11
69.1000000000000085
 21
40.0
 31
0.0
  0
LINE
  5
BC
100
AcDbEntity
100
AcDbLine
  8
0
 62
256
370
-1
  6
ByLayer
 10
69.1000000000000085
 20
40.0
 30
0.0
 11
69.1000000000000085
 21
50.0000000000000071
 31
0.0
  0
LINE
  5
BD
100
AcDbEntity
100
AcDbLine
  8
0
 62
256
370
-1
  6
ByLayer
 10
69.1000000000000085
 20
27.0
 30
0.0
 11
72.1000000000000085
 21
27.0
 31
0.0
  0
LINE
  5
BE
100
AcDbEntity
100
AcDbLine
  8
0
 62
256
370
-1
  6
ByLayer
 10
69.1000000000000085
 20
12.0
 30
0.0
 11
69.1000000000000085
 21
27.0
 31
0.0
  0
LINE
  5
BF
100
AcDbEntity
100
AcDbLine
  8
0
 62
256
370
-1
  6
ByLayer
 10
72.1000000000000085
 20
27.0
 30
0.0
 11
72.1000000000000085
 21
12.0000000000000018
 31
0.0
  0
LINE
  5
C0
100
AcDbEntity
100
AcDbLine
  8
0
 62
256
370
-1
  6
ByLayer
 10
72.1000000000000085
 20
12.0000000000000018
 30
0.0
 11
69.1000000000000085
 21
12.0
 31
0.0
  0
LINE
  5
C1
100
AcDbEntity
100
AcDbLine
  8
0
 62
256
370
-1
  6
ByLayer
 10
76.1000000000000085
 20
50.0000000000000071
 30
0.0
 11
79.1000000000000085
 21
50.0
 31
0.0
  0
LINE
  5
C2
100
AcDbEntity
100
AcDbLine
  8
0
 62
256
370
-1
  6
ByLayer
 10
79.1000000000000085
 20
50.0
 30
0.0
 11
79.1000000000000085
 21
56.7000000000000028
 31
0.0
  0
LINE
  5
C3
100
AcDbEntity
100
AcDbLine
  8
0
 62
256
370
-1
  6
ByLayer
 10
76.1000000000000085
 20
40.0
 30
0.0
 11
79.1000000000000085
 21
40.0
 31
0.0
  0
LINE
  5
C4
100
AcDbEntity
100
AcDbLine
  8
0
 62
256
370
-1
  6
ByLayer
 10
79.1000000000000085
 20
40.0
 30
0.0
 11
79.1000000000000085
 21
27.0
 31
0.0
  0
LINE
  5
C5
100
AcDbEntity
100
AcDbLine
  8
0
 62
256
370
-1
  6
ByLayer
 10
79.1000000000000085
 20
27.0
 30
0.0
 11
76.1000000000000085
 21
27.0
 31
0.0
  0
LINE
  5
C6
100
AcDbEntity
100
AcDbLine
  8
0
 62
256
370
-1
  6
ByLayer
 10
76.1000000000000085
 20
12.0
 30
0.0
 11
79.1000000000000085
 21
12.0
 31
0.0
  0
LINE
  5
C7
100
AcDbEntity
100
AcDbLine
  8
0
 62
256
370
-1
  6
ByLayer
 10
79.1000000000000085
 20
12.0
 30
0.0
 11
79.1000000000000085
 21
-3.4999999999999996
 31
0.0
  0
LINE
  5
C8
100
AcDbEntity
100
AcDbLine
  8
0
 62
256
370
-1
  6
ByLayer
 10
87.4000000000000057
 20
-3.5
 30
0.0
 11
87.4000000000000199
 21
-0.5
 31
0.0
  0
LINE
  5
C9
100
AcDbEntity
100
AcDbLine
  8
0
 62
256
370
-1
  6
ByLayer
 10
87.4000000000000199
 20
56.6999999999999957
 30
0.0
 11
87.4000000000000199
 21
53.7000000000000028
 31
0.0
  0
LINE
  5
CA
100
AcDbEntity
100
AcDbLine
  8
0
 62
256
370
-1
  6
ByLayer
 10
87.4000000000000057
 20
56.7000000000000028
 30
0.0
 11
79.1000000000000085
 21
56.7000000000000028
 31
0.0
  0
LINE
  5
CB
100
AcDbEntity
100
AcDbLine
  8
0
 62
256
370
-1
  6
ByLayer
 10
79.1000000000000085
 20
-3.4999999999999996
 30
0.0
 11
87.4000000000000199
 21
-3.5
 31
0.0
  0
LINE
  5
CC
100
AcDbEntity
100
AcDbLine
  8
0
 62
256
370
-1
  6
ByLayer
 10
98.7000000000000171
 20
50.0000000000000071
 30
0.0
 11
95.7000000000000171
 21
50.0000000000000071
 31
0.0
  0
LINE
  5
CD
100
AcDbEntity
100
AcDbLine
  8
0
 62
256
370
-1
  6
ByLayer
 10
95.7000000000000171
 20
50.0000000000000071
 30
0.0
 11
95.7000000000000171
 21
53.7000000000000028
 31
0.0
  0
LINE
  5
CE
100
AcDbEntity
100
AcDbLine
  8
0
 62
256
370
-1
  6
ByLayer
 10
98.7000000000000028
 20
42.0
 30
0.0
 11
95.7000000000000028
 21
42.0
 31
0.0
  0
LINE
  5
CF
100
AcDbEntity
100
AcDbLine
  8
0
 62
256
370
-1
  6
ByLayer
 10
95.7000000000000028
 20
42.0
 30
0.0
 11
95.7000000000000028
 21
31.0
 31
0.0
  0
LINE
  5
D0
100
AcDbEntity
100
AcDbLine
  8
0
 62
256
370
-1
  6
ByLayer
 10
95.7000000000000028
 20
31.0
 30
0.0
 11
98.7000000000000028
 21
31.0
 31
0.0
  0
LINE
  5
D1
100
AcDbEntity
100
AcDbLine
  8
0
 62
256
370
-1
  6
ByLayer
 10
98.7000000000000028
 20
12.0000000000000018
 30
0.0
 11
95.7000000000000028
 21
12.0000000000000018
 31
0.0
  0
LINE
  5
D2
100
AcDbEntity
100
AcDbLine
  8
0
 62
256
370
-1
  6
ByLayer
 10
95.7000000000000028
 20
12.0000000000000018
 30
0.0
 11
95.7000000000000171
 21
-0.5
 31
0.0
  0
LINE
  5
D3
100
AcDbEntity
100
AcDbLine
  8
0
 62
256
370
-1
  6
ByLayer
 10
87.4000000000000199
 20
-0.5
 30
0.0
 11
95.7000000000000171
 21
-0.5
 31
0.0
  0
LINE
  5
D4
100
AcDbEntity
100
AcDbLine
  8
0
 62
256
370
-1
  6
ByLayer
 10
87.4000000000000199
 20
53.7000000000000028
 30
0.0
 11
95.7000000000000028
 21
53.7000000000000028
 31
0.0
  0
LINE
  5
D5
100
AcDbEntity
100
AcDbLine
  8
0
 62
256
370
-1
  6
ByLayer
 10
98.7000000000000028
 20
12.0000000000000018
 30
0.0
 11
98.7000000000000028
 21
31.0
 31
0.0
  0
LINE
  5
D6
100
AcDbEntity
100
AcDbLine
  8
0
 62
256
370
-1
  6
ByLayer
 10
98.7000000000000028
 20
42.0
 30
0.0
 11
98.7000000000000028
 21
50.0
 31
0.0
  0
CIRCLE
  5
D7
100
AcDbEntity
100
AcDbCircle
  8
0
 62
256
370
-1
  6
ByLayer
 10
66.1000000000000085
 20
126.3000000000000114
 30
0.0
 40
1.5
  0
CIRCLE
  5
D8
100
AcDbEntity
100
AcDbCircle
  8
0
 62
256
370
-1
  6
ByLayer
 10
66.0999999999999943
 20
98.4000000000000057
 30
0.0
 40
1.5000000000000142
  0
ARC
  5
D9
100
AcDbEntity
  8
0
 62
256
370
-1
  6
ByLayer
100
AcDbCircle
 10
-3.1999999999999993
 20
147.5
 30
0.0
 40
4.0
100
AcDbArc
 50
89.9999999999998153
 51
180.0
  0
ARC
  5
DA
100
AcDbEntity
  8
0
 62
256
370
-1
  6
ByLayer
100
AcDbCircle
 10
72.1000000000000085
 20
147.5
 30
0.0
 40
4.0
100
AcDbArc
 50
360.0
 51
90.0
  0
LINE
  5
DB
100
AcDbEntity
100
AcDbLine
  8
0
 62
256
370
-1
  6
ByLayer
 10
76.1000000000000085
 20
87.3000000000000114
 30
0.0
 11
76.1000000000000085
 21
147.4999999999999716
 31
0.0
  0
ARC
  5
DC
100
AcDbEntity
  8
0
 62
256
370
-1
  6
ByLayer
100
AcDbCircle
 10
72.0999999999999943
 20
87.3000000000000114
 30
0.0
 40
4.0
100
AcDbArc
 50
269.9999999999997726
 51
0.0
  0
LINE
  5
DD
100
AcDbEntity
100
AcDbLine
  8
0
 62
256
370
-1
  6
ByLayer
 10
-7.1999999999999993
 20
147.5
 30
0.0
 11
-7.1999999999999993
 21
87.3000000000000114
 31
0.0
  0
ARC
  5
DE
100
AcDbEntity
  8
0
 62
256
370
-1
  6
ByLayer
100
AcDbCircle
 10
-3.1999999999999993
 20
87.3000000000000114
 30
0.0
 40
4.0
100
AcDbArc
 50
180.0
 51
270.0
  0
LINE
  5
DF
100
AcDbEntity
100
AcDbLine
  8
0
 62
256
370
-1
  6
ByLayer
 10
-3.2000000000000002
 20
139.8000000000000114
 30
0.0
 11
-0.2
 21
139.8000000000000114
 31
0.0
  0
LINE
  5
E0
100
AcDbEntity
100
AcDbLine
  8
0
 62
256
370
-1
  6
ByLayer
 10
-3.2000000000000002
 20
119.7999999999999972
 30
0.0
 11
-3.2000000000000002
 21
139.8000000000000114
 31
0.0
  0
LINE
  5
E1
100
AcDbEntity
100
AcDbLine
  8
0
 62
256
370
-1
  6
ByLayer
 10
-0.2
 20
119.7999999999999972
 30
0.0
 11
-3.2000000000000002
 21
119.7999999999999972
 31
0.0
  0
LINE
  5
E2
100
AcDbEntity
100
AcDbLine
  8
0
 62
256
370
-1
  6
ByLayer
 10
-3.2000000000000002
 20
108.8000000000000114
 30
0.0
 11
-0.2000000000000002
 21
108.8000000000000114
 31
0.0
  0
LINE
  5
E3
100
AcDbEntity
100
AcDbLine
  8
0
 62
256
370
-1
  6
ByLayer
 10
-0.2000000000000002
 20
90.3000000000000114
 30
0.0
 11
-3.2000000000000002
 21
90.3000000000000114
 31
0.0
  0
LINE
  5
E4
100
AcDbEntity
100
AcDbLine
  8
0
 62
256
370
-1
  6
ByLayer
 10
-3.2000000000000002
 20
90.3000000000000114
 30
0.0
 11
-3.2000000000000002
 21
108.8000000000000114
 31
0.0
  0
LINE
  5
E5
100
AcDbEntity
100
AcDbLine
  8
0
 62
256
370
-1
  6
ByLayer
 10
72.1000000000000085
 20
140.8000000000000114
 30
0.0
 11
69.1000000000000085
 21
140.8000000000000114
 31
0.0
  0
LINE
  5
E6
100
AcDbEntity
100
AcDbLine
  8
0
 62
256
370
-1
  6
ByLayer
 10
69.1000000000000085
 20
132.8000000000000114
 30
0.0
 11
72.1000000000000085
 21
132.8000000000000114
 31
0.0
  0
LINE
  5
E7
100
AcDbEntity
100
AcDbLine
  8
0
 62
256
370
-1
  6
ByLayer
 10
72.1000000000000085
 20
132.8000000000000114
 30
0.0
 11
72.1000000000000085
 21
140.8000000000000114
 31
0.0
  0
LINE
  5
E8
100
AcDbEntity
100
AcDbLine
  8
0
 62
256
370
-1
  6
ByLayer
 10
69.1000000000000085
 20
121.8000000000000114
 30
0.0
 11
72.1000000000000085
 21
121.8000000000000114
 31
0.0
  0
LINE
  5
E9
100
AcDbEntity
100
AcDbLine
  8
0
 62
256
370
-1
  6
ByLayer
 10
72.1000000000000085
 20
121.8000000000000114
 30
0.0
 11
72.1000000000000085
 21
102.8000000000000114
 31
0.0
  0
LINE
  5
EA
100
AcDbEntity
100
AcDbLine
  8
0
 62
256
370
-1
  6
ByLayer
 10
72.1000000000000085
 20
102.8000000000000114
 30
0.0
 11
69.1000000000000085
 21
102.8000000000000114
 31
0.0
  0
LINE
  5
EB
100
AcDbEntity
100
AcDbLine
  8
0
 62
256
370
-1
  6
ByLayer
 10
69.1000000000000085
 20
102.8000000000000114
 30
0.0
 11
69.1000000000000085
 21
121.8000000000000114
 31
0.0
  0
CIRCLE
  5
EC
100
AcDbEntity
100
AcDbCircle
  8
csk
 62
256
370
-1
  6
ByLayer
 10
15.3000000000000025
 20
141.5000000000000284
 30
0.0
 40
2.9000000000000004
  0
CIRCLE
  5
ED
100
AcDbEntity
100
AcDbCircle
  8
csk
 62
256
370
-1
  6
ByLayer
 10
66.1000000000000085
 20
126.3000000000000114
 30
0.0
 40
2.9000000000000057
  0
CIRCLE
  5
EE
100
AcDbEntity
100
AcDbCircle
  8
csk
 62
256
370
-1
  6
ByLayer
 10
66.0999999999999943
 20
98.4000000000000057
 30
0.0
 40
2.8999999999999915
  0
CIRCLE
  5
EF
100
AcDbEntity
100
AcDbCircle
  8
csk
 62
256
370
-1
  6
ByLayer
 10
14.0000000000000036
 20
93.3000000000000114
 30
0.0
 40
2.9000000000000021
  0
CIRCLE
  5
F0
100
AcDbEntity
100
AcDbCircle
  8
csk
 62
256
370
-1
  6
DASHED
 10
66.1000000000000085
 20
35.5
 30
0.0
 40
2.9000000000000057
  0
CIRCLE
  5
F1
100
AcDbEntity
100
AcDbCircle
  8
csk
 62
256
370
-1
  6
DASHED
 10
66.0999999999999943
 20
7.6000000000000005
 30
0.0
 40
2.9000000000000057
  0
CIRCLE
  5
F2
100
AcDbEntity
100
AcDbCircle
  8
csk
 62
256
370
-1
  6
DASHED
 10
14.0000000000000018
 20
2.5
 30
0.0
 40
2.9000000000000004
  0
CIRCLE
  5
F3
100
AcDbEntity
100
AcDbCircle
  8
csk
 62
256
370
-1
  6
DASHED
 10
15.3000000000000007
 20
50.7000000000000028
 30
0.0
 40
2.8999999999999986
  0
LEADER
  5
F4
  8
csk
 62
256
370
-1
  6
ByLayer
100
AcDbEntity
100
AcDbLeader
  3
Standard
 71
1
 72
0
 73
3
 74
0
 75
0
 40
1.0
 41
10.0
 76
3
 10
16.7404353708749376
 20
144.0169715815504503
 10
31.0
 20
159.0
 10
39.0
 20
159.0
  0
MTEXT
  5
F5
100
AcDbEntity
100
AcDbMText
  8
csk
 62
256
370
-1
  6
ByLayer
 10
40.0
 20
159.0
 30
0.0
 40
1.0
 41
100.0
 71
4
 72
2
  1
\U+00f83.00\~THRU,\~CSK\~\U+00f85.80\~\U+00d7\~90%%d\~(4)
  7
unicode
 50
0.0
 73
0
 44
1.0
  0
LEADER
  5
F6
  8
csk
 62
256
370
-1
  6
ByLayer
100
AcDbEntity
100
AcDbLeader
  3
Standard
 71
1
 72
0
 73
3
 74
0
 75
0
 40
1.0
 41
10.0
 76
3
 10
67.5237445065915978
 20
38.026450391349556
 10
90.0
 20
63.0
 10
95.0
 20
63.0
  0
MTEXT
  5
F7
100
AcDbEntity
100
AcDbMText
  8
csk
 62
256
370
-1
  6
ByLayer
 10
96.0
 20
63.0
 30
0.0
 40
1.0
 41
100.0
 71
4
 72
2
  1
\U+00f83.00\~THRU,\~CSK\~\U+00f85.80\~\U+00d7\~90%%d\~(4)\PBOTTOM\~SIDE
  7
unicode
 50
0.0
 73
0
 44
1.0
  0
LINE
  5
F8
100
AcDbEntity
100
AcDbLine
  8
outline
 62
256
370
-1
  6
ByLayer
 10
-6.7000000000000002
 20
32.2000000000000028
 30
0.0
 11
10.3000000000000007
 21
32.2000000000000028
 31
0.0
  0
LINE
  5
F9
100
AcDbEntity
100
AcDbLine
  8
outline
 62
256
370
-1
  6
ByLayer
 10
10.3000000000000007
 20
32.2000000000000028
 30
0.0
 11
10.3000000000000007
 21
44.7000000000000028
 31
0.0
  0
LINE
  5
FA
100
AcDbEntity
100
AcDbLine
  8
outline
 62
256
370
-1
  6
ByLayer
 10
10.3000000000000007
 20
44.7000000000000028
 30
0.0
 11
-6.7000000000000002
 21
44.7000000000000028
 31
0.0
  0
LINE
  5
FB
100
AcDbEntity
100
AcDbLine
  8
outline
 62
256
370
-1
  6
ByLayer
 10
-6.7000000000000002
 20
44.7000000000000028
 30
0.0
 11
-6.7000000000000002
 21
32.2000000000000028
 31
0.0
  0
LINE
  5
FC
100
AcDbEntity
100
AcDbLine
  8
outline
 62
256
370
-1
  6
ByLayer
 10
-2.2000000000000002
 20
3.5
 30
0.0
 11
12.5
 21
3.5
 31
0.0
  0
LINE
  5
FD
100
AcDbEntity
100
AcDbLine
  8
outline
 62
256
370
-1
  6
ByLayer
 10
12.5
 20
3.5
 30
0.0
 11
12.5
 21
13.5
 31
0.0
  0
LINE
  5
FE
100
AcDbEntity
100
AcDbLine
  8
outline
 62
256
370
-1
  6
ByLayer
 10
12.5
 20
13.5
 30
0.0
 11
-2.2000000000000002
 21
13.5
 31
0.0
  0
LINE
  5
FF
100
AcDbEntity
100
AcDbLine
  8
outline
 62
256
370
-1
  6
ByLayer
 10
-2.2000000000000002
 20
13.5
 30
0.0
 11
-2.2000000000000002
 21
3.5
 31
0.0
  0
CIRCLE
  5
100
100
AcDbEntity
100
AcDbCircle
  8
outline
 62
256
370
-1
  6
ByLayer
 10
63.4000000000000057
 20
16.5
 30
0.0
 40
1.5
  0
LINE
  5
101
100
AcDbEntity
100
AcDbLine
  8
outline
 62
256
370
-1
  6
ByLayer
 10
61.9000000000000057
 20
23.8999999999999986
 30
0.0
 11
66.9000000000000057
 21
23.8999999999999986
 31
0.0
  0
LINE
  5
102
100
AcDbEntity
100
AcDbLine
  8
outline
 62
256
370
-1
  6
ByLayer
 10
66.9000000000000057
 20
23.8999999999999986
 30
0.0
 11
66.9000000000000057
 21
31.1999999999999993
 31
0.0
  0
LINE
  5
103
100
AcDbEntity
100
AcDbLine
  8
outline
 62
256
370
-1
  6
ByLayer
 10
66.9000000000000057
 20
31.1999999999999993
 30
0.0
 11
61.9000000000000057
 21
31.1999999999999993
 31
0.0
  0
LINE
  5
104
100
AcDbEntity
100
AcDbLine
  8
outline
 62
256
370
-1
  6
ByLayer
 10
61.9000000000000057
 20
31.1999999999999993
 30
0.0
 11
61.9000000000000057
 21
23.8999999999999986
 31
0.0
  0
CIRCLE
  5
105
100
AcDbEntity
100
AcDbCircle
  8
outline
 62
256
370
-1
  6
ByLayer
 10
14.0000000000000018
 20
93.3000000000000256
 30
0.0
 40
1.6000000000000001
  0
CIRCLE
  5
106
100
AcDbEntity
100
AcDbCircle
  8
outline
 62
256
370
-1
  6
ByLayer
 10
15.3000000000000025
 20
141.5000000000000284
 30
0.0
 40
1.6000000000000014
  0
CIRCLE
  5
107
100
AcDbEntity
100
AcDbCircle
  8
outline
 62
256
370
-1
  6
ByLayer
 10
66.0999999999999943
 20
98.4000000000000199
 30
0.0
 40
1.5999999999999996
  0
CIRCLE
  5
108
100
AcDbEntity
100
AcDbCircle
  8
outline
 62
256
370
-1
  6
ByLayer
 10
66.1000000000000085
 20
126.3000000000000256
 30
0.0
 40
1.6000000000000014
  0
LINE
  5
109
100
AcDbEntity
100
AcDbLine
  8
outline
 62
256
370
-1
  6
ByLayer
 10
-0.1999999999999984
 20
144.5000000000000284
 30
0.0
 11
-0.1999999999999984
 21
90.3000000000000256
 31
0.0
  0
LINE
  5
10A
100
AcDbEntity
100
AcDbLine
  8
outline
 62
256
370
-1
  6
ByLayer
 10
69.1000000000000085
 20
144.5000000000000284
 30
0.0
 11
-0.1999999999999984
 21
144.5000000000000284
 31
0.0
  0
LINE
  5
10B
100
AcDbEntity
100
AcDbLine
  8
outline
 62
256
370
-1
  6
ByLayer
 10
-0.1999999999999984
 20
90.3000000000000256
 30
0.0
 11
69.1000000000000085
 21
90.3000000000000256
 31
0.0
  0
LINE
  5
10C
100
AcDbEntity
100
AcDbLine
  8
outline
 62
256
370
-1
  6
ByLayer
 10
69.1000000000000085
 20
90.3000000000000256
 30
0.0
 11
69.1000000000000085
 21
144.5000000000000284
 31
0.0
  0
LINE
  5
10D
100
AcDbEntity
100
AcDbLine
  8
outline
 62
256
370
-1
  6
ByLayer
 10
-0.1999999999999984
 20
94.3000000000000256
 30
0.0
 11
-2.1999999999999984
 21
94.3000000000000256
 31
0.0
  0
LINE
  5
10E
100
AcDbEntity
100
AcDbLine
  8
outline
 62
256
370
-1
  6
ByLayer
 10
-2.1999999999999984
 20
94.3000000000000256
 30
0.0
 11
-2.1999999999999984
 21
104.3000000000000256
 31
0.0
  0
LINE
  5
10F
100
AcDbEntity
100
AcDbLine
  8
outline
 62
256
370
-1
  6
ByLayer
 10
-2.1999999999999984
 20
104.3000000000000256
 30
0.0
 11
-0.1999999999999979
 21
104.3000000000000256
 31
0.0
  0
LINE
  5
110
100
AcDbEntity
100
AcDbLine
  8
outline
 62
256
370
-1
  6
ByLayer
 10
-0.1999999999999984
 20
135.5000000000000284
 30
0.0
 11
-6.6999999999999984
 21
135.5000000000000284
 31
0.0
  0
LINE
  5
111
100
AcDbEntity
100
AcDbLine
  8
outline
 62
256
370
-1
  6
ByLayer
 10
-6.6999999999999984
 20
135.5000000000000284
 30
0.0
 11
-6.6999999999999984
 21
123.0000000000000284
 31
0.0
  0
LINE
  5
112
100
AcDbEntity
100
AcDbLine
  8
outline
 62
256
370
-1
  6
ByLayer
 10
-6.6999999999999984
 20
123.0000000000000284
 30
0.0
 11
-0.1999999999999984
 21
123.0000000000000284
 31
0.0
  0
LINE
  5
113
100
AcDbEntity
100
AcDbLine
  8
outline
 62
256
370
-1
  6
ByLayer
 10
-6.6999999999999984
 20
123.0000000000000284
 30
0.0
 11
10.3000000000000025
 21
123.0000000000000284
 31
0.0
  0
LINE
  5
114
100
AcDbEntity
100
AcDbLine
  8
outline
 62
256
370
-1
  6
ByLayer
 10
10.3000000000000025
 20
123.0000000000000284
 30
0.0
 11
10.3000000000000025
 21
135.5000000000000284
 31
0.0
  0
LINE
  5
115
100
AcDbEntity
100
AcDbLine
  8
outline
 62
256
370
-1
  6
ByLayer
 10
10.3000000000000025
 20
135.5000000000000284
 30
0.0
 11
-6.6999999999999984
 21
135.5000000000000284
 31
0.0
  0
LINE
  5
116
100
AcDbEntity
100
AcDbLine
  8
outline
 62
256
370
-1
  6
ByLayer
 10
-6.6999999999999984
 20
135.5000000000000284
 30
0.0
 11
-6.6999999999999984
 21
123.0000000000000284
 31
0.0
  0
LINE
  5
117
100
AcDbEntity
100
AcDbLine
  8
outline
 62
256
370
-1
  6
ByLayer
 10
-2.1999999999999984
 20
94.3000000000000256
 30
0.0
 11
12.5000000000000018
 21
94.3000000000000256
 31
0.0
  0
LINE
  5
118
100
AcDbEntity
100
AcDbLine
  8
outline
 62
256
370
-1
  6
ByLayer
 10
12.5000000000000018
 20
94.3000000000000256
 30
0.0
 11
12.5000000000000018
 21
104.3000000000000256
 31
0.0
  0
LINE
  5
119
100
AcDbEntity
100
AcDbLine
  8
outline
 62
256
370
-1
  6
ByLayer
 10
12.5000000000000018
 20
104.3000000000000256
 30
0.0
 11
-2.1999999999999984
 21
104.3000000000000256
 31
0.0
  0
LINE
  5
11A
100
AcDbEntity
100
AcDbLine
  8
outline
 62
256
370
-1
  6
ByLayer
 10
-2.1999999999999984
 20
104.3000000000000256
 30
0.0
 11
-2.1999999999999984
 21
94.3000000000000256
 31
0.0
  0
CIRCLE
  5
11B
100
AcDbEntity
100
AcDbCircle
  8
outline
 62
256
370
-1
  6
ByLayer
 10
63.4000000000000057
 20
107.3000000000000256
 30
0.0
 40
1.5
  0
LINE
  5
11C
100
AcDbEntity
100
AcDbLine
  8
outline
 62
256
370
-1
  6
ByLayer
 10
61.9000000000000057
 20
114.7000000000000171
 30
0.0
 11
66.9000000000000057
 21
114.7000000000000171
 31
0.0
  0
LINE
  5
11D
100
AcDbEntity
100
AcDbLine
  8
outline
 62
256
370
-1
  6
ByLayer
 10
66.9000000000000057
 20
114.7000000000000171
 30
0.0
 11
66.9000000000000057
 21
122.0000000000000284
 31
0.0
  0
LINE
  5
11E
100
AcDbEntity
100
AcDbLine
  8
outline
 62
256
370
-1
  6
ByLayer
 10
66.9000000000000057
 20
122.0000000000000284
 30
0.0
 11
61.9000000000000057
 21
122.0000000000000284
 31
0.0
  0
LINE
  5
11F
100
AcDbEntity
100
AcDbLine
  8
outline
 62
256
370
-1
  6
ByLayer
 10
61.9000000000000057
 20
122.0000000000000284
 30
0.0
 11
61.9000000000000057
 21
114.7000000000000171
 31
0.0
  0
LINE
  5
120
100
AcDbEntity
100
AcDbLine
  8
0
 62
256
370
-1
  6
ByLayer
 10
-0.2000000000000002
 20
90.3000000000000114
 30
0.0
 11
-0.2000000000000005
 21
83.3000000000000114
 31
0.0
  0
LINE
  5
121
100
AcDbEntity
100
AcDbLine
  8
0
 62
256
370
-1
  6
ByLayer
 10
-3.2000000000000002
 20
83.3000000000000114
 30
0.0
 11
-0.2000000000000004
 21
83.3000000000000114
 31
0.0
  0
LINE
  5
122
100
AcDbEntity
100
AcDbLine
  8
0
 62
256
370
-1
  6
ByLayer
 10
69.1000000000000085
 20
83.3000000000000114
 30
0.0
 11
72.0999999999999801
 21
83.3000000000000114
 31
0.0
  0
LINE
  5
123
100
AcDbEntity
100
AcDbLine
  8
0
 62
256
370
-1
  6
ByLayer
 10
-0.1999999999999997
 20
151.5
 30
0.0
 11
-3.1999999999999869
 21
151.5
 31
0.0
  0
LINE
  5
124
100
AcDbEntity
100
AcDbLine
  8
0
 62
256
370
-1
  6
ByLayer
 10
72.1000000000000085
 20
151.5
 30
0.0
 11
69.1000000000000085
 21
151.5
 31
0.0
  0
LINE
  5
125
100
AcDbEntity
100
AcDbLine
  8
0
 62
256
370
-1
  6
ByLayer
 10
-0.1999999999999984
 20
144.5000000000000284
 30
0.0
 11
-0.199999999999998
 21
151.5
 31
0.0
  0
LINE
  5
126
100
AcDbEntity
100
AcDbLine
  8
0
 62
256
370
-1
  6
ByLayer
 10
-0.2000000000000028
 20
144.5000000000000284
 30
0.0
 11
-0.2
 21
139.8000000000000114
 31
0.0
  0
LINE
  5
127
100
AcDbEntity
100
AcDbLine
  8
0
 62
256
370
-1
  6
ByLayer
 10
-0.2000000000000034
 20
135.0000000000000284
 30
0.0
 11
-0.2
 21
119.7999999999999972
 31
0.0
  0
LINE
  5
128
100
AcDbEntity
100
AcDbLine
  8
0
 62
256
370
-1
  6
ByLayer
 10
-0.2000000000000002
 20
108.8000000000000114
 30
0.0
 11
-0.1999999999999999
 21
95.8000000000000114
 31
0.0
  0
LINE
  5
129
100
AcDbEntity
100
AcDbLine
  8
0
 62
256
370
-1
  6
ByLayer
 10
69.1000000000000085
 20
135.0000000000000284
 30
0.0
 11
69.1000000000000085
 21
132.8000000000000114
 31
0.0
  0
CIRCLE
  5
12A
100
AcDbEntity
100
AcDbCircle
  8
0
 62
256
370
-1
  6
ByLayer
 10
63.4000000000000057
 20
107.3000000000000256
 30
0.0
 40
2.0000000000000071
  0
LINE
  5
12B
100
AcDbEntity
100
AcDbLine
  8
0
 62
256
370
-1
  6
ByLayer
 10
-0.2000000000000034
 20
135.0000000000000284
 30
0.0
 11
-0.2000000000000034
 21
136.5000000000000284
 31
0.0
  0
LINE
  5
12C
100
AcDbEntity
100
AcDbLine
  8
0
 62
256
370
-1
  6
ByLayer
 10
69.1000000000000085
 20
135.0000000000000284
 30
0.0
 11
69.1000000000000085
 21
136.5000000000000284
 31
0.0
  0
LINE
  5
12D
100
AcDbEntity
100
AcDbLine
  8
0
 62
256
370
-1
  6
ByLayer
 10
69.1000000000000085
 20
151.5
 30
0.0
 11
67.1000000000000085
 21
151.5
 31
0.0
  0
LINE
  5
12E
100
AcDbEntity
100
AcDbLine
  8
0
 62
256
370
-1
  6
ByLayer
 10
67.1000000000000085
 20
151.5
 30
0.0
 11
67.1000000000000085
 21
136.5000000000000284
 31
0.0
  0
LINE
  5
12F
100
AcDbEntity
100
AcDbLine
  8
0
 62
256
370
-1
  6
ByLayer
 10
69.1000000000000085
 20
140.8000000000000114
 30
0.0
 11
69.1000000000000085
 21
136.5000000000000284
 31
0.0
  0
LINE
  5
130
100
AcDbEntity
100
AcDbLine
  8
0
 62
256
370
-1
  6
ByLayer
 10
-0.2000000000000034
 20
136.5000000000000284
 30
0.0
 11
67.1000000000000085
 21
136.5000000000000284
 31
0.0
  0
LINE
  5
131
100
AcDbEntity
100
AcDbLine
  8
0
 62
256
370
-1
  6
ByLayer
 10
67.6000000000000085
 20
90.3000000000000256
 30
0.0
 11
67.6000000000000085
 21
83.3000000000000114
 31
0.0
  0
LINE
  5
132
100
AcDbEntity
100
AcDbLine
  8
0
 62
256
370
-1
  6
ByLayer
 10
67.6000000000000085
 20
90.3000000000000256
 30
0.0
 11
67.6000000000000085
 21
95.8000000000000256
 31
0.0
  0
LINE
  5
133
100
AcDbEntity
100
AcDbLine
  8
0
 62
256
370
-1
  6
ByLayer
 10
69.1000000000000085
 20
83.3000000000000114
 30
0.0
 11
67.6000000000000085
 21
83.3000000000000114
 31
0.0
  0
LINE
  5
134
100
AcDbEntity
100
AcDbLine
  8
0
 62
256
370
-1
  6
ByLayer
 10
-0.1999999999999999
 20
95.8000000000000114
 30
0.0
 11
67.6000000000000085
 21
95.8000000000000256
 31
0.0
  0
LINE
  5
135
100
AcDbEntity
100
AcDbLine
  8
0
 62
256
370
-1
  6
ByLayer
 10
-0.2000000000000001
 20
80.3000000000000114
 30
0.0
 11
-3.2000000000000002
 21
80.3000000000000114
 31
0.0
  0
LINE
  5
136
100
AcDbEntity
100
AcDbLine
  8
0
 62
256
370
-1
  6
ByLayer
 10
67.6000000000000085
 20
80.3000000000000114
 30
0.0
 11
72.1000000000000085
 21
80.3000000000000114
 31
0.0
  0
LINE
  5
137
100
AcDbEntity
100
AcDbLine
  8
0
 62
256
370
-1
  6
ByLayer
 10
-3.2000000000000002
 20
-27.1000000000000085
 30
0.0
 11
-0.2000000000000072
 21
-27.1000000000000121
 31
0.0
  0
LINE
  5
138
100
AcDbEntity
100
AcDbLine
  8
0
 62
256
370
-1
  6
ByLayer
 10
67.5999999999999943
 20
-27.1000000000000618
 30
0.0
 11
72.1000000000000085
 21
-27.1000000000000654
 31
0.0
  0
LINE
  5
139
100
AcDbEntity
100
AcDbLine
  8
0
 62
256
370
-1
  6
ByLayer
 10
-0.2000000000000003
 20
79.1000000000000085
 30
0.0
 11
67.6000000000000085
 21
79.1000000000000085
 31
0.0
  0
LINE
  5
13A
100
AcDbEntity
100
AcDbLine
  8
0
 62
256
370
-1
  6
ByLayer
 10
-0.2000000000000001
 20
80.3000000000000114
 30
0.0
 11
-0.2000000000000003
 21
79.1000000000000085
 31
0.0
  0
LINE
  5
13B
100
AcDbEntity
100
AcDbLine
  8
0
 62
256
370
-1
  6
ByLayer
 10
67.6000000000000085
 20
80.3000000000000114
 30
0.0
 11
67.6000000000000085
 21
79.1000000000000085
 31
0.0
  0
LINE
  5
13C
100
AcDbEntity
100
AcDbLine
  8
0
 62
256
370
-1
  6
ByLayer
 10
-0.2000000000000069
 20
-25.9000000000000128
 30
0.0
 11
67.5999999999999943
 21
-25.9000000000000625
 31
0.0
  0
LINE
  5
13D
100
AcDbEntity
100
AcDbLine
  8
0
 62
256
370
-1
  6
ByLayer
 10
-0.2000000000000072
 20
-27.1000000000000121
 30
0.0
 11
-0.2000000000000069
 21
-25.9000000000000128
 31
0.0
  0
LINE
  5
13E
100
AcDbEntity
100
AcDbLine
  8
0
 62
256
370
-1
  6
ByLayer
 10
67.5999999999999943
 20
-27.1000000000000618
 30
0.0
 11
67.5999999999999943
 21
-25.9000000000000625
 31
0.0
  0
ENDSEC
  0
SECTION
  2
OBJECTS
  0
DICTIONARY
  5
C
100
AcDbDictionary
280
0
281
1
  3
ACAD_GROUP
350
D
  3
ACAD_LAYOUT
350
1A
  3
ACAD_MLINESTYLE
350
17
  3
ACAD_PLOTSETTINGS
350
19
  3
ACAD_PLOTSTYLENAME
350
E
  3
AcDbVariableDictionary
350
13F
  0
DICTIONARY
  5
D
100
AcDbDictionary
280
0
281
1
  0
ACDBDICTIONARYWDFLT
  5
E
100
AcDbDictionary
281
1
  3
Normal
350
F
100
AcDbDictionaryWithDefault
340
F
  0
ACDBPLACEHOLDER
  5
F
  0
DICTIONARY
  5
17
100
AcDbDictionary
280
0
281
1
  3
Standard
350
18
  0
MLINESTYLE
  5
18
100
AcDbMlineStyle
  2
STANDARD
 70
0
  3

 62
256
 51
90.0
 52
90.0
 71
2
 49
0.5
 62
256
  6
BYLAYER
 49
-0.5
 62
256
  6
BYLAYER
  0
DICTIONARY
  5
19
100
AcDbDictionary
280
0
281
1
  0
DICTIONARY
  5
1A
100
AcDbDictionary
281
1
  3
Layout1
350
1E
  3
Layout2
350
26
  3
Model
350
22
  0
LAYOUT
  5
1E
100
AcDbPlotSettings
  1

  2
C:\Program Files\AutoCAD 2002\plotters\DWF ePlot (optimized for plotting).pc3
  4

  6

 40
0.0
 41
0.0
 42
0.0
 43
0.0
 44
0.0
 45
0.0
 46
0.0
 47
0.0
 48
0.0
 49
0.0
140
0.0
141
0.0
142
1.0
143
1.0
 70
688
 72
0
 73
0
 74
5
  7

 75
16
147
1.0
148
0.0
149
0.0
100
AcDbLayout
  1
Layout1
 70
1
 71
1
 10
0.0
 20
0.0
 11
420.0
 21
297.0
 12
0.0
 22
0.0
 32
0.0
 14
100000000000000000000.0
 24
100000000000000000000.0
 34
100000000000000000000.0
 15
-100000000000000000000.0
 25
-100000000000000000000.0
 35
-100000000000000000000.0
146
0.0
 13
0.0
 23
0.0
 33
0.0
 16
1.0
 26
0.0
 36
0.0
 17
0.0
 27
1.0
 37
0.0
 76
0
330
1B
  0
LAYOUT
  5
22
100
AcDbPlotSettings
  1

  2
C:\Program Files\AutoCAD 2002\plotters\DWF ePlot (optimized for plotting).pc3
  4

  6

 40
0.0
 41
0.0
 42
0.0
 43
0.0
 44
0.0
 45
0.0
 46
0.0
 47
0.0
 48
0.0
 49
0.0
140
0.0
141
0.0
142
1.0
143
1.0
 70
1712
 72
0
 73
0
 74
0
  7

 75
0
147
1.0
148
0.0
149
0.0
100
AcDbLayout
  1
Model
 70
1
 71
0
 10
0.0
 20
0.0
 11
12.0
 21
9.0
 12
0.0
 22
0.0
 32
0.0
 14
0.0
 24
0.0
 34
0.0
 15
0.0
 25
0.0
 35
0.0
146
0.0
 13
0.0
 23
0.0
 33
0.0
 16
1.0
 26
0.0
 36
0.0
 17
0.0
 27
1.0
 37
0.0
 76
0
330
1F
  0
LAYOUT
  5
26
100
AcDbPlotSettings
  1

  2
C:\Program Files\AutoCAD 2002\plotters\DWF ePlot (optimized for plotting).pc3
  4

  6

 40
0.0
 41
0.0
 42
0.0
 43
0.0
 44
0.0
 45
0.0
 46
0.0
 47
0.0
 48
0.0
 49
0.0
140
0.0
141
0.0
142
1.0
143
1.0
 70
688
 72
0
 73
0
 74
5
  7

 75
16
147
1.0
148
0.0
149
0.0
100
AcDbLayout
  1
Layout2
 70
1
 71
2
 10
0.0
 20
0.0
 11
12.0
 21
9.0
 12
0.0
 22
0.0
 32
0.0
 14
0.0
 24
0.0
 34
0.0
 15
0.0
 25
0.0
 35
0.0
146
0.0
 13
0.0
 23
0.0
 33
0.0
 16
1.0
 26
0.0
 36
0.0
 17
0.0
 27
1.0
 37
0.0
 76
0
330
23
  0
DICTIONARY
  5
13F
100
AcDbDictionary
281
1
  3
DIMASSOC
350
141
  3
HIDETEXT
350
140
  0
DICTIONARYVAR
  5
140
100
DictionaryVariables
280
0
  1
2
  0
DICTIONARYVAR
  5
141
100
DictionaryVariables
280
0
  1
1
  0
ENDSEC
  0
EOF
